<?xml version="1.0" encoding="utf-8"?>
<!-- Generator: Adobe Illustrator 27.1.1, SVG Export Plug-In . SVG Version: 6.00 Build 0)  -->
<svg version="1.1" id="Ebene_1" xmlns:serif="http://www.serif.com/"
	 xmlns="http://www.w3.org/2000/svg" xmlns:xlink="http://www.w3.org/1999/xlink" x="0px" y="0px" viewBox="0 0 456 456"
	 style="enable-background:new 0 0 456 456;" xml:space="preserve">
<style type="text/css">
	.st0{fill:#FFFFFF;}
	.st1{fill:#9A9A9A;}
	.st2{fill:url(#SVGID_1_);}
	.st3{fill:none;}
	.st4{fill:url(#SVGID_00000028306354110120452150000017031772172529336992_);}
</style>
<path class="st0" d="M380.3,456H75.7C34.1,456,0,421.9,0,380.3V75.7C0,34.1,34.1,0,75.7,0h304.5C421.9,0,456,34.1,456,75.7v304.5
	C456,421.9,421.9,456,380.3,456z"/>
<g>
	<polygon class="st1" points="385.9,136.2 385.9,136.2 385.9,136.2 	"/>
	<polygon class="st1" points="136.8,69.5 136.8,69.5 136.8,69.5 	"/>
	<polygon class="st1" points="70.1,318.6 70.1,318.6 70.1,318.6 	"/>
	<linearGradient id="SVGID_1_" gradientUnits="userSpaceOnUse" x1="45.6458" y1="227.9834" x2="410.3653" y2="227.9834">
		<stop  offset="0" style="stop-color:#9B56F6"/>
		<stop  offset="0.3343" style="stop-color:#C04CC0"/>
		<stop  offset="0.6267" style="stop-color:#DC4598"/>
		<stop  offset="0.8582" style="stop-color:#ED4180"/>
		<stop  offset="1" style="stop-color:#F33F77"/>
	</linearGradient>
	<path class="st2" d="M372,277.2c-2,22.4,10.9,38.4,13.9,42v0c-22.9-3.3-45.4,5.7-57.8,23.4c-12.9,18.4-9.8,38.7-8.9,43.3v0h0
		c-18.2-14.3-42.2-17.8-61.8-8.6c-20.4,9.5-27.8,28.7-29.4,33c-8.6-21.5-27.6-36.5-49.2-38.4c-22.4-2-38.4,10.9-42,13.9c0,0,0,0,0,0
		v0c3.3-22.9-5.7-45.4-23.4-57.8c-18.4-12.9-38.7-9.8-43.3-8.9h0v0c14.3-18.2,17.8-42.2,8.6-61.8C69.2,237,50,229.5,45.6,228
		c21.5-8.6,36.5-27.6,38.4-49.2c2-22.4-10.9-38.4-13.9-42c0,0,0,0,0,0h0c22.9,3.3,45.4-5.7,57.8-23.4c12.9-18.4,9.8-38.7,8.9-43.3v0
		h0c18.2,14.3,42.2,17.8,61.8,8.6c20.4-9.5,27.8-28.7,29.4-33c8.6,21.5,27.6,36.5,49.2,38.4c22.4,2,38.4-10.9,42-13.9c0,0,0,0,0,0
		c-3.3,22.9,5.7,45.4,23.4,57.8c18.4,12.9,38.7,9.8,43.3,8.9h0v0c-14.3,18.2-17.8,42.2-8.6,61.8c9.5,20.4,28.7,27.8,33,29.4
		C388.8,236.6,373.9,255.6,372,277.2z"/>
	<polygon class="st1" points="327.4,394.8 327.3,394.8 327.3,394.8 	"/>
	<path class="st3" d="M385.9,136.2c-14.3,18.2-17.8,42.2-8.6,61.8c9.5,20.4,28.7,27.8,33,29.4"/>
	
		<radialGradient id="SVGID_00000181808762676021195040000007002577350920461204_" cx="228.4766" cy="217.6984" r="103.5596" gradientTransform="matrix(1.3421 0 0 1.3421 -78.6307 -64.1876)" gradientUnits="userSpaceOnUse">
		<stop  offset="0" style="stop-color:#000000"/>
		<stop  offset="1" style="stop-color:#000000;stop-opacity:0"/>
	</radialGradient>
	<circle style="fill:url(#SVGID_00000181808762676021195040000007002577350920461204_);" cx="228" cy="228" r="139"/>
	<circle class="st0" cx="228" cy="228" r="91.8"/>
	<g>
		<path d="M228.7,165.8l-1.3,0c-1.5,0-2.7-1.2-2.7-2.7l0-18.4c0-1.5,1.2-2.7,2.7-2.7l1.3,0c1.5,0,2.7,1.2,2.7,2.7l0,18.4
			C231.4,164.6,230.2,165.8,228.7,165.8z"/>
	</g>
	<g>
		<path d="M249.3,263.5l-1.2,0.7c-1.3,0.7-2.9,0.3-3.7-1l-13.1-22.7l-6.7-11.6v-13.4l0-40.4c0-1.5,1.2-2.7,2.7-2.7l1.3,0
			c1.5,0,2.7,1.2,2.7,2.7l0,52l18.9,32.7C251,261.1,250.6,262.8,249.3,263.5z"/>
	</g>
	<g>
		<path d="M197.5,173.8l-1.2,0.7c-1.3,0.7-2.9,0.3-3.7-1l-9.2-15.9c-0.7-1.3-0.3-2.9,1-3.7l1.2-0.7c1.3-0.7,2.9-0.3,3.7,1l9.2,15.9
			C199.2,171.4,198.8,173,197.5,173.8z"/>
	</g>
	<g>
		<rect x="160.5" y="179" transform="matrix(0.5003 -0.8658 0.8658 0.5003 -83.447 237.2491)" width="6.7" height="23.8"/>
	</g>
	<g>
		<path d="M174.5,196.3l-0.7,1.2c-0.7,1.3-2.4,1.7-3.7,1l-15.9-9.2c-1.3-0.7-1.7-2.4-1-3.7l0.7-1.2c0.7-1.3,2.4-1.7,3.7-1l15.9,9.2
			C174.8,193.4,175.2,195,174.5,196.3z"/>
	</g>
	<g>
		<path d="M165.8,227.3l0,1.3c0,1.5-1.2,2.7-2.7,2.7l-18.4,0c-1.5,0-2.7-1.2-2.7-2.7l0-1.3c0-1.5,1.2-2.7,2.7-2.7l18.4,0
			C164.6,224.6,165.8,225.8,165.8,227.3z"/>
	</g>
	<g>
		<path d="M173.8,258.5l0.7,1.2c0.7,1.3,0.3,2.9-1,3.7l-15.9,9.2c-1.3,0.7-2.9,0.3-3.7-1l-0.7-1.2c-0.7-1.3-0.3-2.9,1-3.7l15.9-9.2
			C171.4,256.8,173,257.2,173.8,258.5z"/>
	</g>
	<g>
		<path d="M196.3,281.5l1.2,0.7c1.3,0.7,1.7,2.4,1,3.7l-9.2,15.9c-0.7,1.3-2.4,1.7-3.7,1l-1.2-0.7c-1.3-0.7-1.7-2.4-1-3.7l9.2-15.9
			C193.4,281.2,195,280.8,196.3,281.5z"/>
	</g>
	<g>
		<path d="M227.3,290.2l1.3,0c1.5,0,2.7,1.2,2.7,2.7l0,18.4c0,1.5-1.2,2.7-2.7,2.7l-1.3,0c-1.5,0-2.7-1.2-2.7-2.7l0-18.4
			C224.6,291.4,225.8,290.2,227.3,290.2z"/>
	</g>
	<g>
		<path d="M258.5,282.2l1.2-0.7c1.3-0.7,2.9-0.3,3.7,1l9.2,15.9c0.7,1.3,0.3,2.9-1,3.7l-1.2,0.7c-1.3,0.7-2.9,0.3-3.7-1l-9.2-15.9
			C256.8,284.6,257.2,282.9,258.5,282.2z"/>
	</g>
	<g>
		<path d="M281.6,259.7l0.7-1.2c0.7-1.3,2.4-1.7,3.7-1l15.9,9.2c1.3,0.7,1.7,2.4,1,3.7l-0.7,1.2c-0.7,1.3-2.4,1.7-3.7,1l-15.9-9.2
			C281.3,262.6,280.8,261,281.6,259.7z"/>
	</g>
	<g>
		<path d="M290.2,228.7l0-1.3c0-1.5,1.2-2.7,2.7-2.7l18.4,0c1.5,0,2.7,1.2,2.7,2.7l0,1.3c0,1.5-1.2,2.7-2.7,2.7l-18.4,0
			C291.4,231.3,290.2,230.1,290.2,228.7z"/>
	</g>
	<g>
		<path d="M282.2,197.5l-0.7-1.2c-0.7-1.3-0.3-2.9,1-3.7l15.9-9.2c1.3-0.7,2.9-0.3,3.7,1l0.7,1.2c0.7,1.3,0.3,2.9-1,3.7l-15.9,9.2
			C284.6,199.2,283,198.7,282.2,197.5z"/>
	</g>
	<g>
		<path d="M259.7,174.4l-1.2-0.7c-1.3-0.7-1.7-2.4-1-3.7l9.2-15.9c0.7-1.3,2.4-1.7,3.7-1l1.2,0.7c1.3,0.7,1.7,2.4,1,3.7l-9.2,15.9
			C262.6,174.7,261,175.2,259.7,174.4z"/>
	</g>
</g>
</svg>
