<?xml version="1.0" encoding="utf-8"?>
<!-- Generator: Adobe Illustrator 27.1.1, SVG Export Plug-In . SVG Version: 6.00 Build 0)  -->
<svg version="1.1" id="Ebene_2" xmlns="http://www.w3.org/2000/svg" xmlns:xlink="http://www.w3.org/1999/xlink" x="0px" y="0px"
	 viewBox="0 0 456 456" style="enable-background:new 0 0 456 456;" xml:space="preserve">
<style type="text/css">
	.st0{fill:#9A9A9A;}
	.st1{fill:url(#SVGID_1_);}
	.st2{fill:none;}
	.st3{fill:url(#SVGID_00000106864961576543399990000016637819664262593175_);}
	.st4{fill:#FFFFFF;}
</style>
<g>
	<polygon class="st0" points="379.6,140.2 379.6,140.2 379.6,140.2 	"/>
	<polygon class="st0" points="141.2,76.3 141.3,76.3 141.3,76.3 	"/>
	<polygon class="st0" points="77.4,314.7 77.4,314.7 77.4,314.7 	"/>
	<linearGradient id="SVGID_1_" gradientUnits="userSpaceOnUse" x1="54" y1="228" x2="403" y2="228">
		<stop  offset="0" style="stop-color:#9B56F6"/>
		<stop  offset="0.3343" style="stop-color:#C04CC0"/>
		<stop  offset="0.6267" style="stop-color:#DC4598"/>
		<stop  offset="0.8582" style="stop-color:#ED4180"/>
		<stop  offset="1" style="stop-color:#F33F77"/>
	</linearGradient>
	<path class="st1" d="M366.3,275.1c-1.9,21.4,10.4,36.7,13.3,40.2v0c-21.9-3.2-43.4,5.5-55.3,22.4c-12.3,17.6-9.3,37.1-8.6,41.4v0h0
		c-17.4-13.7-40.3-17-59.1-8.2c-19.5,9.1-26.6,27.5-28.1,31.6c-8.2-20.6-26.4-34.9-47.1-36.7c-21.4-1.9-36.7,10.4-40.2,13.3
		c0,0,0,0,0,0v0c3.2-21.9-5.5-43.4-22.4-55.3c-17.6-12.3-37.1-9.3-41.4-8.6h0v0c13.7-17.4,17-40.3,8.2-59.1
		C76.5,236.6,58.1,229.5,54,228c20.6-8.2,34.9-26.4,36.7-47.1c1.9-21.4-10.4-36.7-13.3-40.2c0,0,0,0,0,0h0
		c21.9,3.2,43.4-5.5,55.3-22.4c12.3-17.6,9.3-37.1,8.6-41.4v0h0c17.4,13.7,40.3,17,59.1,8.2c19.5-9.1,26.6-27.5,28.1-31.6
		c8.2,20.6,26.4,34.9,47.1,36.7c21.4,1.9,36.7-10.4,40.2-13.3c0,0,0,0,0,0c-3.2,21.9,5.5,43.4,22.4,55.3
		c17.6,12.3,37.1,9.3,41.4,8.6h0v0c-13.7,17.4-17,40.3-8.2,59.1c9.1,19.5,27.5,26.6,31.6,28.1C382.4,236.2,368.1,254.4,366.3,275.1z
		"/>
	<polygon class="st0" points="323.6,387.6 323.6,387.6 323.6,387.6 	"/>
	<path class="st2" d="M379.6,140.2c-13.7,17.4-17,40.3-8.2,59.1c9.1,19.5,27.5,26.6,31.6,28.1"/>
	
		<radialGradient id="SVGID_00000036955615964320961700000011678387205887135881_" cx="228.3941" cy="217.616" r="109.533" gradientTransform="matrix(1.2142 0 0 1.2142 -48.8183 -36.2314)" gradientUnits="userSpaceOnUse">
		<stop  offset="0" style="stop-color:#000000"/>
		<stop  offset="1" style="stop-color:#000000;stop-opacity:0"/>
	</radialGradient>
	<circle style="fill:url(#SVGID_00000036955615964320961700000011678387205887135881_);" cx="228.5" cy="228" r="133"/>
	<circle class="st4" cx="228.5" cy="228" r="87.8"/>
	<g>
		<path d="M229.1,168.5l-1.3,0c-1.4,0-2.6-1.2-2.6-2.6l0-17.6c0-1.4,1.2-2.6,2.6-2.6l1.3,0c1.4,0,2.6,1.2,2.6,2.6l0,17.6
			C231.7,167.3,230.6,168.5,229.1,168.5z"/>
	</g>
	<g>
		<path d="M248.9,262l-1.1,0.6c-1.2,0.7-2.8,0.3-3.5-1L231.7,240l-6.4-11.1V216l0-38.7c0-1.4,1.2-2.6,2.6-2.6l1.3,0
			c1.4,0,2.6,1.1,2.6,2.6l0,49.8l18.1,31.3C250.5,259.7,250.1,261.3,248.9,262z"/>
	</g>
	<g>
		<path d="M199.3,176.1l-1.1,0.6c-1.2,0.7-2.8,0.3-3.5-0.9l-8.8-15.2c-0.7-1.2-0.3-2.8,0.9-3.5l1.1-0.6c1.2-0.7,2.8-0.3,3.5,0.9
			l8.8,15.2C200.9,173.8,200.5,175.4,199.3,176.1z"/>
	</g>
	<g>
		<rect x="163.9" y="181.2" transform="matrix(0.5003 -0.8658 0.8658 0.5003 -83.2153 240.8783)" width="6.4" height="22.7"/>
	</g>
	<g>
		<path d="M177.3,197.7l-0.6,1.1c-0.7,1.2-2.3,1.6-3.5,0.9l-15.2-8.8c-1.2-0.7-1.6-2.3-0.9-3.5l0.6-1.1c0.7-1.2,2.3-1.6,3.5-0.9
			l15.2,8.8C177.5,194.9,178,196.4,177.3,197.7z"/>
	</g>
	<g>
		<path d="M169,227.4l0,1.3c0,1.4-1.2,2.6-2.6,2.6l-17.6,0c-1.4,0-2.6-1.2-2.6-2.6l0-1.3c0-1.4,1.2-2.6,2.6-2.6l17.6,0
			C167.8,224.8,169,225.9,169,227.4z"/>
	</g>
	<g>
		<path d="M176.6,257.2l0.6,1.1c0.7,1.2,0.3,2.8-0.9,3.5l-15.2,8.8c-1.2,0.7-2.8,0.3-3.5-0.9l-0.6-1.1c-0.7-1.2-0.3-2.8,0.9-3.5
			l15.2-8.8C174.3,255.6,175.9,256,176.6,257.2z"/>
	</g>
	<g>
		<path d="M198.2,279.2l1.1,0.6c1.2,0.7,1.6,2.3,0.9,3.5l-8.8,15.2c-0.7,1.2-2.3,1.6-3.5,0.9l-1.1-0.6c-1.2-0.7-1.6-2.3-0.9-3.5
			l8.8-15.2C195.4,279,196.9,278.5,198.2,279.2z"/>
	</g>
	<g>
		<path d="M227.9,287.5l1.3,0c1.4,0,2.6,1.2,2.6,2.6l0,17.6c0,1.4-1.2,2.6-2.6,2.6l-1.3,0c-1.4,0-2.6-1.2-2.6-2.6l0-17.6
			C225.3,288.7,226.4,287.5,227.9,287.5z"/>
	</g>
	<g>
		<path d="M257.7,279.9l1.1-0.6c1.2-0.7,2.8-0.3,3.5,0.9l8.8,15.2c0.7,1.2,0.3,2.8-0.9,3.5l-1.1,0.6c-1.2,0.7-2.8,0.3-3.5-0.9
			l-8.8-15.2C256.1,282.2,256.5,280.6,257.7,279.9z"/>
	</g>
	<g>
		<path d="M279.7,258.3l0.6-1.1c0.7-1.2,2.3-1.6,3.5-0.9l15.2,8.8c1.2,0.7,1.6,2.3,0.9,3.5l-0.6,1.1c-0.7,1.2-2.3,1.6-3.5,0.9
			l-15.2-8.8C279.5,261.1,279,259.6,279.7,258.3z"/>
	</g>
	<g>
		<path d="M288,228.6l0-1.3c0-1.4,1.2-2.6,2.6-2.6l17.6,0c1.4,0,2.6,1.2,2.6,2.6l0,1.3c0,1.4-1.2,2.6-2.6,2.6l-17.6,0
			C289.2,231.2,288,230.1,288,228.6z"/>
	</g>
	<g>
		<path d="M280.4,198.8l-0.6-1.1c-0.7-1.2-0.3-2.8,0.9-3.5l15.2-8.8c1.2-0.7,2.8-0.3,3.5,0.9l0.6,1.1c0.7,1.2,0.3,2.8-0.9,3.5
			l-15.2,8.8C282.7,200.4,281.1,200,280.4,198.8z"/>
	</g>
	<g>
		<path d="M258.8,176.8l-1.1-0.6c-1.2-0.7-1.6-2.3-0.9-3.5l8.8-15.2c0.7-1.2,2.3-1.6,3.5-0.9l1.1,0.6c1.2,0.7,1.6,2.3,0.9,3.5
			l-8.8,15.2C261.6,177,260.1,177.5,258.8,176.8z"/>
	</g>
</g>
</svg>
