<?xml version="1.0" encoding="utf-8"?>
<!-- Generator: Adobe Illustrator 27.1.0, SVG Export Plug-In . SVG Version: 6.00 Build 0)  -->
<svg version="1.1" id="Ebene_1" xmlns:serif="http://www.serif.com/"
	 xmlns="http://www.w3.org/2000/svg" xmlns:xlink="http://www.w3.org/1999/xlink" x="0px" y="0px" viewBox="0 0 456 456"
	 style="enable-background:new 0 0 456 456;" xml:space="preserve">
<path d="M259.5,113.7c0-4.6,4.5-8.3,10.1-8.3c5.6,0,10.1,3.7,10.1,8.3V150c0,4.6-4.5,8.3-10.1,8.3c-5.6,0-10.1-3.7-10.1-8.3V113.7z
	 M283.8,277.2c0-1.4,1-2.6,2.3-3.1c-0.2-2.7-0.5-6.7,0.2-9.2c0.8-2.7,2.6-5,5-6.4c0.9-0.5,1.8-1,2.7-1.3c1.7-0.6,0.9-3.5,2.8-3.6
	c4.4-0.1,11.7,3.9,14.6,7c1.8,2,2.8,4.6,2.9,7.3l-0.2,6.5c0.9,0.2,1.6,0.8,1.9,1.6c0.9,3.8-8.4,12.9-8.4,13.8c0,0.3,0.1,0.6,0.4,0.9
	c6.5,8.9,25.5,3.9,25.5,21.6h-67.2c0-17.7,19-12.7,25.5-21.6c0.3-0.5,0.5-0.7,0.5-0.9C292.3,289,283.8,280.4,283.8,277.2z
	 M299.9,220.7c17.9,0,34.1,7.3,45.9,19c11.8,11.7,19,28,19,45.9c0,17.9-7.3,34.2-19,45.9l-0.3,0.3c-11.7,11.6-27.8,18.7-45.6,18.7
	c-17.9,0-34.1-7.3-45.9-19c-11.8-11.8-19-28-19-45.9c0-17.9,7.3-34.2,19-45.9l0.3-0.3C266.1,227.8,282.2,220.7,299.9,220.7
	L299.9,220.7z M338,247.5c-9.7-9.7-23.2-15.8-38.1-15.8c-14.8,0-28.1,5.9-37.8,15.5l-0.3,0.3c-9.7,9.7-15.8,23.2-15.8,38.1
	c0,14.9,6,28.4,15.8,38.1c9.7,9.7,23.2,15.8,38.1,15.8c14.8,0,28.1-5.9,37.8-15.5l0.3-0.3c9.7-9.7,15.8-23.2,15.8-38.1
	C353.8,270.7,347.8,257.3,338,247.5z M144.6,222.7c-0.6,0-1.1-2.5-1.1-5.6c0-3.1,0.5-5.6,1.1-5.6h27.6c0.6,0,1.1,2.5,1.1,5.6
	c0,3.1-0.5,5.6-1.1,5.6H144.6z M188.5,222.7c-0.6,0-1.1-2.5-1.1-5.6c0-3.1,0.4-5.6,1.1-5.6h27.6c0.6,0,1.1,2.5,1.1,5.6
	c0,3.1-0.5,5.6-1.1,5.6H188.5z M232.5,222.7c-0.6,0-1.1-2.5-1.1-5.6c0-3.1,0.4-5.6,1.1-5.6H260c0.6,0,1.1,2.5,1.1,5.6
	c-2.8,1.7-5.4,3.6-8,5.6L232.5,222.7L232.5,222.7z M144.7,254.7c-0.6,0-1.1-2.5-1.1-5.6c0-3.1,0.4-5.6,1.1-5.6h27.6
	c0.6,0,1.1,2.5,1.1,5.6c0,3.1-0.4,5.6-1.1,5.6H144.7z M188.6,254.7c-0.6,0-1.1-2.5-1.1-5.6c0-3.1,0.4-5.6,1.1-5.6h27.6
	c0.6,0,1.1,2.5,1.1,5.6c0,3.1-0.4,5.6-1.1,5.6H188.6z M144.7,286.8c-0.6,0-1.1-2.5-1.1-5.6c0-3.1,0.5-5.6,1.1-5.6h27.6
	c0.6,0,1.1,2.5,1.1,5.6c0,3.1-0.5,5.6-1.1,5.6H144.7z M188.7,286.8c-0.6,0-1.1-2.5-1.1-5.6c0-3.1,0.5-5.6,1.1-5.6h27.6
	c0.6,0,1.1,2.5,1.1,5.6c0,3.1-0.5,5.6-1.1,5.6H188.7z M168.8,113.7c0-4.6,4.5-8.3,10.1-8.3c5.6,0,10.1,3.7,10.1,8.3V150
	c0,4.6-4.5,8.3-10.1,8.3c-5.6,0-10.1-3.7-10.1-8.3V113.7z M128.3,184.6h192.3v-41.7c0-1.4-0.6-2.7-1.5-3.6c-0.9-0.9-2.2-1.5-3.6-1.5
	H297c-3.1,0-5.6-2.5-5.6-5.6c0-3.1,2.5-5.6,5.6-5.6h18.4c4.5,0,8.6,1.8,11.5,4.8c3,3,4.8,7,4.8,11.5v66.2c-3.7-1.3-7.5-2.3-11.3-3
	v-10.3h0.1H128.3v108c0,1.4,0.6,2.7,1.5,3.6c0.9,0.9,2.2,1.5,3.6,1.5h91.4c1,3.9,2.3,7.7,3.9,11.3h-95.2c-4.5,0-8.6-1.8-11.5-4.8
	c-3-2.9-4.8-7-4.8-11.5V143c0-4.5,1.8-8.6,4.8-11.5c3-3,7-4.8,11.5-4.8h19.7c3.1,0,5.6,2.5,5.6,5.6c0,3.1-2.5,5.6-5.6,5.6h-19.7
	c-1.4,0-2.7,0.6-3.6,1.5c-0.9,0.9-1.5,2.2-1.5,3.6L128.3,184.6L128.3,184.6L128.3,184.6L128.3,184.6z M205.2,137.9
	c-3.1,0-5.6-2.5-5.6-5.6c0-3.1,2.5-5.6,5.6-5.6h37.5c3.1,0,5.6,2.5,5.6,5.6c0,3.1-2.5,5.6-5.6,5.6H205.2L205.2,137.9z"/>
</svg>
